<svg viewBox="0 0 441 451" xmlns="http://www.w3.org/2000/svg" fill-rule="evenodd" clip-rule="evenodd" stroke-linecap="square" stroke-linejoin="round" stroke-miterlimit="10"><path fill="#E34A33" d="M77.25 287.106h28.16v3.26H77.25zm35.2-4.41h28.16v7.67h-28.16zm35.2 5.67h28.16v2h-28.16zm35.2-1.22h28.16v3.22h-28.16zm35.2 1.22h28.16v2h-28.16zm35.2-2.47h28.16v4.47h-28.16zm35.2-2.71h28.16v7.18h-28.16zm35.2-5.42h28.16v12.6h-28.16zm35.2 7.84h28.16v4.76h-28.16zm35.2-2.24h28.16v7h-28.16z"/><path fill="#993224" d="M77.25 283.846h28.16v3.26H77.25zm35.2-8.82h28.16v7.67h-28.16zm35.2 12.34h28.16v2h-28.16zm35.2-3.44h28.16v3.22h-28.16zm35.2 3.44h28.16v2h-28.16zm35.2-5.93h28.16v4.46h-28.16zm35.2-5.43h28.16v7.18h-28.16zm35.2-10.84h28.16v12.6h-28.16zm35.2 15.68h28.16v4.76h-28.16zm35.2-4.48h28.16v7h-28.16z"/><path fill="#E6E6E6" d="M77.25 282.366h28.16v2H77.25zm35.2-10.14h28.16v2.8h-28.16zm35.2 12.79h28.16v2.8h-28.16zm35.2-5.29h28.16v4.2h-28.16zm35.2 2.88h28.16v5.6h-28.16zm35.2-3.97h28.16v2.8h-28.16zm35.2-4.27h28.16v2h-28.16zm35.2-10h28.16v1h-28.16zm35.2 16h28.16v1h-28.16zm35.2-5h28.16v1h-28.16z"/><path fill="#43A2CA" d="M77.25 268.236h28.16v14.91H77.25zm35.2-52.46h28.16v56.45h-28.16zm35.2-10.5h28.16v79.74h-28.16zm35.2-23.66h28.16v98.11h-28.16zm35.2 13.19h28.16v87.8h-28.16zm35.2-38.48h28.16v122.31h-28.16zm35.2-1h28.16v119.28h-28.16zm35.2-72.86h28.16v182h-28.16zm35.2 2.24h28.16v196h-28.16zm35.2-11.48h28.16v203h-28.16zM87.635 20.987h12v12h-12z"/><path fill="#E6E6E6" d="M260.952 20.987h12v12h-12z"/><path fill="#993224" d="M87.635 42.187h12v12h-12z"/><path fill="#E34A33" d="M260.952 42.187h12v12h-12z"/><path d="M72.999 248.129h32.879v-42.076h34.937v-84.028h175.976V66.384h109.85" fill="none" stroke="#2C6224" stroke-width="4" stroke-dasharray="12,12,0,0"/><text x="302.866" y="-83.83" font-family="'ArialMT', 'Arial', sans-serif" font-size="15" fill="#333" transform="rotate(90)">AlexNet, 2012</text><text x="302.866" y="-119.03" font-family="'ArialMT', 'Arial', sans-serif" font-size="15" fill="#333" transform="rotate(90)">VGG19, 2014</text><text x="302.866" y="-154.23" font-family="'ArialMT', 'Arial', sans-serif" font-size="15" fill="#333" transform="rotate(90)">Inception v3, 2015</text><text x="302.866" y="-189.43" font-family="'ArialMT', 'Arial', sans-serif" font-size="15" fill="#333" transform="rotate(90)">ResNet-152, 2015</text><text x="302.866" y="-224.63" font-family="'ArialMT', 'Arial', sans-serif" font-size="15" fill="#333" transform="rotate(90)">DenseNet-201, 2016</text><text x="302.866" y="-259.83" font-family="'ArialMT', 'Arial', sans-serif" font-size="15" fill="#333" transform="rotate(90)">ResNeXt-101, 2016</text><text x="302.866" y="-295.03" font-family="'ArialMT', 'Arial', sans-serif" font-size="15" fill="#333" transform="rotate(90)">FCN8s, 2017</text><text x="302.866" y="-330.23" font-family="'ArialMT', 'Arial', sans-serif" font-size="15" fill="#333" transform="rotate(90)">T<tspan x="311.473px 316.469px" y="-330.23px -330.23px">ra</tspan>nsformer<tspan x="383.17px 387.338px" y="-330.23px -330.23px">, </tspan>2017</text><text x="302.866" y="-365.43" font-family="'ArialMT', 'Arial', sans-serif" font-size="15" fill="#333" transform="rotate(90)">RoBER<tspan x="352.614px 360.114px 368.457px" y="-365.43px -365.43px -365.43px">Ta,</tspan> 2018</text><text x="302.866" y="-400.63" font-family="'ArialMT', 'Arial', sans-serif" font-size="15" fill="#333" transform="rotate(90)">BigGAN, 2018</text><text x="35.355" y="295.616" font-family="'ArialMT', 'Arial', sans-serif" font-size="15" fill="#333">0GB</text><text x="35.355" y="225.616" font-family="'ArialMT', 'Arial', sans-serif" font-size="15" fill="#333">5GB</text><text x="27.013" y="155.616" font-family="'ArialMT', 'Arial', sans-serif" font-size="15" fill="#333">10GB</text><text x="27.013" y="85.616" font-family="'ArialMT', 'Arial', sans-serif" font-size="15" fill="#333">15GB</text><text x="113.635" y="32.447" font-family="'ArialMT', 'Arial', sans-serif" font-size="14" fill="#414141">Features</text><text x="286.952" y="32.447" font-family="'ArialMT', 'Arial', sans-serif" font-size="14" fill="#414141">W<tspan x="299.914px 307.701px" y="32.447px 32.447px">or</tspan>kspace memory</text><text x="113.635" y="53.647" font-family="'ArialMT', 'Arial', sans-serif" font-size="14" fill="#414141">Parameter gradients</text><text x="286.952" y="53.647" font-family="'ArialMT', 'Arial', sans-serif" font-size="14" fill="#414141">Parameters</text><text x="-248.404" y="16.433" font-family="'ArialMT', 'Arial', sans-serif" font-size="18" fill="#333" transform="rotate(-90)">T<tspan x="-239.403px -229.391px" y="16.433px 16.433px">ot</tspan>al memory consumed</text><path stroke="#000" stroke-width="5" stroke-linecap="butt" fill="none" d="M70.37 10.366h358.637v282.501H70.37z"/><text x="142.603" y="115.405" font-family="'Arial-BoldMT', 'Arial', sans-serif" font-weight="700" font-size="19" fill="#2C6224">GPU memory limit</text></svg>