<svg clip-rule="evenodd" fill-rule="evenodd" stroke-linecap="round" stroke-linejoin="round" stroke-miterlimit="10" viewBox="0 0 2082 1768" xmlns="http://www.w3.org/2000/svg"><path d="M184.393 1412.178c40.81 40.81 40.81 106.975 0 147.785s-106.975 40.81-147.785 0-40.81-106.975 0-147.785 106.975-40.81 147.785 0m317.121-2.12c41.982 41.982 41.98 110.047 0 152.028-41.982 41.982-110.046 41.982-152.028 0s-41.982-110.046 0-152.028c41.98-41.98 110.046-41.982 152.028 0m318 0c41.982 41.982 41.98 110.047 0 152.028-41.982 41.982-110.046 41.982-152.028 0s-41.982-110.046 0-152.028c41.98-41.98 110.046-41.982 152.028 0" fill="#dae8fc" fill-rule="nonzero" stroke="#6c8ebf" stroke-width="11"/><path d="M1010 1404.072h215v164h-215z" fill="#f8cecc"/><path d="M1010 1404.07h215v164h-215z" fill="none" stroke="#b85450" stroke-width="11"/><path d="M1332 1404.072h215v164h-215z" fill="#f8cecc"/><path d="M1332 1404.07h215v164h-215z" fill="none" stroke="#b85450" stroke-width="11"/><path d="M1654 1404.072h215v164h-215z" fill="#f8cecc"/><path d="M1654 1404.07h215v164h-215z" fill="none" stroke="#b85450" stroke-width="11"/><g stroke-width="13"><path d="M220.5 1486.07h46.1" fill="none" stroke="#4d6588"/><path d="M293.8 1486.072l-27.2-10.2v20.4z" fill="#4d6588" fill-rule="nonzero" stroke="#4d6588" stroke-linecap="butt" stroke-linejoin="miter"/><path d="M538.5 1486.07h46.1" fill="none" stroke="#4d6588"/><path d="M611.8 1486.072l-27.2-10.2v20.4z" fill="#4d6588" fill-rule="nonzero" stroke="#4d6588" stroke-linecap="butt" stroke-linejoin="miter"/><path d="M192.048 1412.24c51.774-36.69 125.839-73.29 215.285-73.29 76 0 147.959 26.42 205.652 56.87" fill="none" stroke="#4d6588"/><path d="M636.565 1409.359l-18.512-22.388-10.156 17.693z" fill="#4d6588" fill-rule="nonzero" stroke="#4d6588" stroke-linecap="butt" stroke-linejoin="miter"/><path d="M856.5 1486.07h102.1" fill="none" stroke="#a04945" stroke-dasharray="26 26"/><path d="M985.8 1486.072l-27.2-10.2v20.4z" fill="#a04945" fill-rule="nonzero" stroke="#a04945" stroke-linecap="butt" stroke-linejoin="miter"/><path d="M1230.5 1486.07h50.1" fill="none" stroke="#a04945" stroke-dasharray="26 26"/><path d="M1307.8 1486.072l-27.2-10.2v20.4z" fill="#a04945" fill-rule="nonzero" stroke="#a04945" stroke-linecap="butt" stroke-linejoin="miter"/><path d="M1552.5 1486.07h50.1" fill="none" stroke="#a04945" stroke-dasharray="26 26"/><path d="M1629.8 1486.072l-27.2-10.2v20.4z" fill="#a04945" fill-rule="nonzero" stroke="#a04945" stroke-linecap="butt" stroke-linejoin="miter"/><path d="M1230.5 1401.24c52.29-28.85 120.07-53.95 197.67-53.95 65.64 0 127.2 17.96 179.11 40.97" fill="none" stroke="#a04945" stroke-dasharray="26 26"/><path d="M1631.71 1400.238l-19.92-21.139-8.99 18.314z" fill="#a04945" fill-rule="nonzero" stroke="#a04945" stroke-linecap="butt" stroke-linejoin="miter"/><path d="M519.354 1549.04c85.47 48.49 223.919 107.29 392.741 107.29 144.345 0 276.795-42.99 372.855-85.76" fill="none" stroke="#a04945" stroke-dasharray="26 26"/><path d="M1309.57 1559.003l-28.95 2.331 8.67 18.464z" fill="#a04945" fill-rule="nonzero" stroke="#a04945" stroke-linecap="butt" stroke-linejoin="miter"/><path d="M202.636 1546.2c136.447 80.94 411.593 214.9 738.034 214.9 281.4 0 521.31-99.55 667.79-178.86" fill="none" stroke="#a04945" stroke-dasharray="26 26"/><path d="M1632.19 1568.931l-28.71 4.409 9.98 17.792z" fill="#a04945" fill-rule="nonzero" stroke="#a04945" stroke-linecap="butt" stroke-linejoin="miter"/></g><path d="M271.41 1200.907l3.33-954.703m237.128 954.08l3.33-954.704m238.022 954.702l3.33-954.7M994.2 1204.66l-1.81-293.34 5.14-661.36m237.378 954.703l3.33-954.704m237.19 950.321l3.33-954.705m237.056 955.328l3.33-954.694" fill="none" stroke="#000" stroke-dasharray="5 45" stroke-opacity=".27" stroke-width="5"/><path d="M1820.25 1200.01H52V111.54" fill="none" stroke="#000" stroke-width="14"/><path d="M52 82.74l-10.8 28.8h21.6zm1797.05 1117.27l-28.8-10.8v21.6z" fill-rule="nonzero" stroke="#000" stroke-linecap="butt" stroke-linejoin="miter" stroke-width="14"/><path d="M1624 1026h291.88v147.143H1624z" fill="#fff"/><path d="M1431.329 382.197L1270.013 563.89M793.696 677.56L972.77 482.195" fill="none" stroke="#000" stroke-width="13"/><path d="M962.986 414.636h86.524v62.062h-86.524z" fill="#f8cecc"/><path d="M962.99 414.64h86.52v62.06h-86.52z" fill="none" stroke="#b85450" stroke-width="11"/><path d="M1056.549 320.662c32.606 19.333 32.6 50.678-.003 70.005-32.61 19.332-85.48 19.332-118.087 0-32.608-19.334-32.61-50.674 0-70.006 32.603-19.327 85.473-19.328 118.09.001" fill="#fff" fill-rule="nonzero"/><path d="M1196.654 647.236l-155.908 178.631" fill="none" stroke="#000" stroke-width="13"/><path d="M1420.51 314.64h86.525v62.062h-86.525z" fill="#f8cecc"/><path d="M1420.51 314.64h86.52v62.06h-86.52z" fill="none" stroke="#b85450" stroke-width="11"/><path d="M1515.544 222.998c32.608 19.334 32.61 50.674 0 70.006s-85.48 19.334-118.089 0-32.61-50.675 0-70.007 85.481-19.334 118.09 0" fill="#fff" fill-rule="nonzero"/><path d="M1688.593 439.478l-183.448 205.876" fill="none" stroke="#000" stroke-width="13"/><path d="M1782.54 280c32.608 19.334 32.61 50.674 0 70.006s-85.481 19.334-118.09 0-32.61-50.675 0-70.007 85.481-19.334 118.09 0" fill="#fff" fill-rule="nonzero"/><path d="M1677.88 371.917h86.524v62.061h-86.524z" fill="#f8cecc"/><path d="M1677.88 371.92h86.53v62.06h-86.53z" fill="none" stroke="#b85450" stroke-width="11"/><path d="M796.008 303.193l62.323-74.783" fill="none" stroke="#000" stroke-width="13"/><path d="M951.595 108.49c-1.026-.98-2.704-.98-3.73 0l-38.055 36.35c-1.026.98-2.704.98-3.73 0l-38.054-36.35c-1.026-.98-2.705-.98-3.73 0l-19.582 18.7a2.455 2.455 0 000 3.57l38.055 36.34a2.443 2.443 0 010 3.56L844.714 207a2.455 2.455 0 000 3.57l19.581 18.7c1.026.98 2.704.98 3.73 0l38.055-36.35c1.026-.98 2.704-.98 3.73 0l38.054 36.35c1.026.97 2.704.97 3.73 0l19.581-18.71a2.443 2.443 0 000-3.56l-38.054-36.34a2.445 2.445 0 010-3.56l38.054-36.34a2.455 2.455 0 000-3.57z" fill="#f26077" fill-rule="nonzero"/><path d="M951.6 108.49c-1.03-.98-2.71-.98-3.73 0l-38.06 36.35c-1.026.98-2.704.98-3.73 0l-38.054-36.35c-1.026-.98-2.705-.98-3.73 0l-19.582 18.7a2.443 2.443 0 000 3.56l38.055 36.35a2.443 2.443 0 010 3.56L844.714 207a2.455 2.455 0 000 3.57l19.581 18.69c1.026.98 2.704.98 3.73 0l38.055-36.34c1.026-.98 2.704-.98 3.73 0l38.05 36.34c1.03.98 2.71.98 3.73 0l19.58-18.7a2.437 2.437 0 000-3.56l-38.05-36.34a2.453 2.453 0 010-3.56l38.05-36.35a2.437 2.437 0 000-3.56z" fill="none" stroke="#984651" stroke-width="7"/><path d="M1044.352 829.225c27.727 27.633 27.727 72.435 0 100.069s-72.682 27.632-100.409 0-27.73-72.44.003-100.066c27.72-27.64 72.68-27.636 100.406-.003" fill="#fff" fill-rule="nonzero"/><path d="M1038.842 946.55c19.92 19.832 19.92 51.983.003 71.813-19.917 19.83-52.209 19.83-72.129-.003-19.913-19.826-19.91-51.974.006-71.804s52.206-19.833 72.12-.006" fill="#fff" fill-rule="nonzero"/><path d="M943.842 861.561v65.487c0 7.221 6.25 13.097 13.929 13.097h64.999c7.68 0 13.93-5.876 13.93-13.097v-65.487zm27.858 56.755c0 2.41-2.08 4.366-4.643 4.366s-4.643-1.956-4.643-4.366v-39.292c0-2.41 2.08-4.366 4.643-4.366s4.643 1.956 4.643 4.366zm23.214 0c0 2.41-2.08 4.366-4.643 4.366s-4.643-1.956-4.643-4.366v-39.292c0-2.41 2.08-4.366 4.643-4.366s4.643 1.956 4.643 4.366zm23.216 0c0 2.41-2.08 4.366-4.64 4.366-2.57 0-4.65-1.956-4.65-4.366v-39.292c0-2.41 2.08-4.366 4.65-4.366 2.56 0 4.64 1.956 4.64 4.366z" fill="#f26077" fill-rule="nonzero"/><path d="M943.84 861.57v65.48c0 7.22 6.25 13.1 13.93 13.1h65c7.68 0 13.93-5.88 13.93-13.1v-65.48zm27.86 56.75c0 2.41-2.08 4.37-4.64 4.37-2.57 0-4.65-1.96-4.65-4.37v-39.29c0-2.41 2.08-4.37 4.65-4.37 2.56 0 4.64 1.96 4.64 4.37zm23.21 0c0 2.41-2.08 4.37-4.64 4.37s-4.64-1.96-4.64-4.37v-39.29c0-2.41 2.08-4.37 4.64-4.37s4.64 1.96 4.64 4.37zm23.22 0c0 2.41-2.08 4.37-4.64 4.37-2.57 0-4.65-1.96-4.65-4.37v-39.29c0-2.41 2.08-4.37 4.65-4.37 2.56 0 4.64 1.96 4.64 4.37z" fill="none" stroke="#803d47" stroke-width="6"/><path d="M1041.34 835.367h-27.85V831c0-7.221-6.25-13.098-13.933-13.098h-18.572c-7.679 0-13.928 5.877-13.928 13.098v4.366H939.2c-5.122 0-9.286 3.916-9.286 8.73v4.367c0 2.41 2.08 4.366 4.643 4.366h111.433c2.56 0 4.64-1.956 4.64-4.366v-4.366c0-4.815-4.17-8.731-9.29-8.731zM976.342 831c0-2.406 2.085-4.366 4.643-4.366h18.572c2.563 0 4.643 1.96 4.643 4.366v4.366h-27.858z" fill="#f26077" fill-rule="nonzero"/><path d="M1041.34 835.36h-27.85V831c0-7.22-6.25-13.1-13.93-13.1h-18.57c-7.68 0-13.93 5.88-13.93 13.1v4.36H939.2c-5.12 0-9.29 3.92-9.29 8.73v4.37c0 2.41 2.08 4.37 4.65 4.37h111.43c2.56 0 4.64-1.96 4.64-4.37v-4.37c0-4.81-4.17-8.73-9.29-8.73zm-65-4.36c0-2.41 2.09-4.37 4.65-4.37h18.57c2.56 0 4.64 1.96 4.64 4.37v4.36h-27.86z" fill="none" stroke="#803d47" stroke-width="6"/><path d="M809.009 648.225c27.728 27.633 27.73 72.433 0 100.07-27.73 27.636-72.683 27.635-100.409 0s-27.73-72.434 0-100.07c27.724-27.63 72.682-27.632 100.409 0" fill="#fff" fill-rule="nonzero"/><path d="M781.688 779.385c19.918 15.344 19.918 40.223.001 55.567s-52.208 15.345-72.13.003c-19.914-15.346-19.912-40.225.005-55.57 19.917-15.345 52.208-15.344 72.124 0" fill="#fff" fill-rule="nonzero"/><path d="M708.497 680.566v65.48c0 7.22 6.25 13.1 13.929 13.1h65c7.679 0 13.929-5.88 13.929-13.1v-65.48zm27.858 56.75c0 2.41-2.08 4.37-4.643 4.37s-4.643-1.96-4.643-4.37v-39.29c0-2.41 2.08-4.37 4.643-4.37s4.643 1.96 4.643 4.37zm23.214 0c0 2.41-2.08 4.37-4.643 4.37s-4.643-1.96-4.643-4.37v-39.29c0-2.41 2.08-4.37 4.643-4.37s4.643 1.96 4.643 4.37zm23.214 0c0 2.41-2.08 4.37-4.643 4.37-2.562 0-4.643-1.96-4.643-4.37v-39.29c0-2.41 2.081-4.37 4.643-4.37 2.563 0 4.643 1.96 4.643 4.37z" fill="#f26077" fill-rule="nonzero"/><path d="M708.497 680.57v65.48c0 7.22 6.25 13.1 13.929 13.1h65c7.679 0 13.929-5.88 13.929-13.1v-65.48zm27.858 56.75c0 2.41-2.08 4.37-4.643 4.37s-4.643-1.96-4.643-4.37v-39.29c0-2.41 2.08-4.37 4.643-4.37s4.643 1.96 4.643 4.37zm23.214 0c0 2.41-2.08 4.37-4.643 4.37s-4.643-1.96-4.643-4.37v-39.29c0-2.41 2.08-4.37 4.643-4.37s4.643 1.96 4.643 4.37zm23.214 0c0 2.41-2.08 4.37-4.643 4.37-2.562 0-4.643-1.96-4.643-4.37v-39.29c0-2.41 2.081-4.37 4.643-4.37 2.563 0 4.643 1.96 4.643 4.37z" fill="none" stroke="#803d47" stroke-width="6"/><path d="M805.997 654.363H778.14v-4.36c0-7.22-6.249-13.1-13.928-13.1H745.64c-7.679 0-13.928 5.88-13.928 13.1v4.36h-27.857c-5.121 0-9.286 3.92-9.286 8.74v4.36c0 2.41 2.08 4.37 4.643 4.37H810.64c2.563 0 4.643-1.96 4.643-4.37v-4.36c0-4.82-4.164-8.74-9.286-8.74zm-65-4.36c0-2.41 2.085-4.37 4.643-4.37h18.572c2.558 0 4.643 1.96 4.643 4.37v4.36h-27.858z" fill="#f26077" fill-rule="nonzero"/><path d="M805.997 654.36H778.14V650c0-7.22-6.249-13.1-13.928-13.1H745.64c-7.679 0-13.928 5.88-13.928 13.1v4.36h-27.857c-5.121 0-9.286 3.92-9.286 8.73v4.37c0 2.41 2.08 4.37 4.643 4.37H810.64c2.563 0 4.643-1.96 4.643-4.37v-4.37c0-4.81-4.164-8.73-9.286-8.73zm-65-4.36c0-2.41 2.085-4.37 4.643-4.37h18.572c2.558 0 4.643 1.96 4.643 4.37v4.36h-27.858zm0 0h.001" fill="none" stroke="#803d47" stroke-width="6"/><path d="M1486.623 780.53c19.916 15.345 19.912 40.217-.005 55.561-19.917 15.345-52.204 15.351-72.118.005-19.914-15.345-19.92-40.222-.003-55.566s52.21-15.343 72.126 0" fill="#fff" fill-rule="nonzero"/><path d="M1508.203 648.225c27.723 27.63 27.73 72.434 0 100.07s-72.682 27.638-100.41-.001-27.73-72.434 0-100.07c27.724-27.629 72.679-27.634 100.41.001" fill="#fff" fill-rule="nonzero"/><path d="M1407.7 680.566v65.48c0 7.22 6.25 13.1 13.93 13.1h65c7.68 0 13.92-5.88 13.92-13.1v-65.48zm27.85 56.75c0 2.41-2.08 4.37-4.64 4.37s-4.64-1.96-4.64-4.37v-39.29c0-2.41 2.08-4.37 4.64-4.37s4.64 1.96 4.64 4.37zm23.22 0c0 2.41-2.08 4.37-4.64 4.37-2.57 0-4.65-1.96-4.65-4.37v-39.29c0-2.41 2.08-4.37 4.65-4.37 2.56 0 4.64 1.96 4.64 4.37zm23.21 0c0 2.41-2.08 4.37-4.64 4.37s-4.64-1.96-4.64-4.37v-39.29c0-2.41 2.08-4.37 4.64-4.37s4.64 1.96 4.64 4.37z" fill="#f26077" fill-rule="nonzero"/><text fill="#4d6588" font-family="'HelveticaNeue-Bold', 'Helvetica Neue'" font-size="90" font-weight="700" x="79.675" y="1518.76">A</text><text fill="#4d6588" font-family="'HelveticaNeue-Bold', 'Helvetica Neue'" font-size="90" font-weight="700" x="393.82" y="1518.76">B</text><text fill="#4d6588" font-family="'HelveticaNeue-Bold', 'Helvetica Neue'" font-size="90" font-weight="700" x="710.155" y="1518.76">C</text><text fill="#a04945" font-family="'HelveticaNeue-Bold', 'Helvetica Neue'" font-size="90" font-weight="700" x="1053.84" y="1518.76">∇<tspan x="1114.48" y="1518.76">C</tspan></text><text fill="#a04945" font-family="'HelveticaNeue-Bold', 'Helvetica Neue'" font-size="90" font-weight="700" x="1377.5" y="1518.76">∇<tspan x="1438.14" y="1518.76">B</tspan></text><text fill="#a04945" font-family="'HelveticaNeue-Bold', 'Helvetica Neue'" font-size="90" font-weight="700" x="1700.36" y="1518.76">∇<tspan x="1761" y="1518.76">A</tspan></text><text fill="#5e5e5e" font-family="'HelveticaNeue', 'Helvetica Neue'" font-size="70" x="257.33" y="1283.42">1</text><text fill="#5e5e5e" font-family="'HelveticaNeue', 'Helvetica Neue'" font-size="70" x="497.728" y="1283.42">2</text><text fill="#5e5e5e" font-family="'HelveticaNeue', 'Helvetica Neue'" font-size="70" x="736.852" y="1283.42">3</text><text fill="#5e5e5e" font-family="'HelveticaNeue', 'Helvetica Neue'" font-size="70" x="975.976" y="1283.42">4</text><text fill="#5e5e5e" font-family="'HelveticaNeue', 'Helvetica Neue'" font-size="70" x="1214.84" y="1283.42">5</text><text fill="#5e5e5e" font-family="'HelveticaNeue', 'Helvetica Neue'" font-size="70" x="1453.44" y="1283.42">6</text><text fill="#5e5e5e" font-family="'HelveticaNeue', 'Helvetica Neue'" font-size="70" x="1692.04" y="1283.42">7</text><text font-family="'HelveticaNeue-Bold', 'Helvetica Neue'" font-size="120" font-weight="700" x="96.669" y="203.057">RAM</text><text font-family="'HelveticaNeue-Bold', 'Helvetica Neue'" font-size="120" font-weight="700" x="1629" y="1143.33">Time</text><text fill="#a04945" font-family="'HelveticaNeue-Bold', 'Helvetica Neue'" font-size="90" font-weight="700" x="932.815" y="395.901">∇<tspan x="993.455" y="395.901">C</tspan></text><text fill="#a04945" font-family="'HelveticaNeue-Bold', 'Helvetica Neue'" font-size="90" font-weight="700" x="1392" y="295.901">∇<tspan x="1452.64" y="295.901">B</tspan></text><text fill="#a04945" font-family="'HelveticaNeue-Bold', 'Helvetica Neue'" font-size="90" font-weight="700" x="1660" y="347.901">∇<tspan x="1720.64" y="347.901">A</tspan></text><text fill="#75363f" font-family="'HelveticaNeue-Bold', 'Helvetica Neue'" font-size="90" font-weight="700" x="805.781" y="89.401">OOM</text><text fill="#797979" font-family="'HelveticaNeue-Bold', 'Helvetica Neue'" font-size="90" font-weight="700" x="957.79" y="1022.94">C</text><text fill="#797979" font-family="'HelveticaNeue-Bold', 'Helvetica Neue'" font-size="90" font-weight="700" x="723.246" y="842.347">B</text><text fill="#797979" font-family="'HelveticaNeue-Bold', 'Helvetica Neue'" font-size="90" font-weight="700" x="1419.74" y="840.421">A</text><path d="M1407.7 680.57v65.48c0 7.22 6.25 13.1 13.93 13.1h65c7.68 0 13.92-5.88 13.92-13.1v-65.48zm27.85 56.75c0 2.41-2.08 4.37-4.64 4.37s-4.64-1.96-4.64-4.37v-39.29c0-2.41 2.08-4.37 4.64-4.37s4.64 1.96 4.64 4.37zm23.22 0c0 2.41-2.08 4.37-4.64 4.37-2.57 0-4.65-1.96-4.65-4.37v-39.29c0-2.41 2.08-4.37 4.65-4.37 2.56 0 4.64 1.96 4.64 4.37zm23.21 0c0 2.41-2.08 4.37-4.64 4.37s-4.64-1.96-4.64-4.37v-39.29c0-2.41 2.08-4.37 4.64-4.37s4.64 1.96 4.64 4.37z" fill="none" stroke="#803d47" stroke-linejoin="miter" stroke-width="6"/><path d="M1505.2 654.363h-27.86v-4.36c0-7.22-6.25-13.1-13.93-13.1h-18.57c-7.68 0-13.93 5.88-13.93 13.1v4.36h-27.86c-5.12 0-9.28 3.92-9.28 8.74v4.36c0 2.41 2.08 4.37 4.64 4.37h111.43c2.56 0 4.64-1.96 4.64-4.37v-4.36c0-4.82-4.16-8.74-9.28-8.74zm-65-4.36c0-2.41 2.08-4.37 4.64-4.37h18.57c2.56 0 4.64 1.96 4.64 4.37v4.36h-27.85z" fill="#f26077" fill-rule="nonzero"/><path d="M1505.2 654.36h-27.86V650c0-7.22-6.25-13.1-13.93-13.1h-18.57c-7.68 0-13.93 5.88-13.93 13.1v4.36h-27.86c-5.12 0-9.28 3.92-9.28 8.73v4.37c0 2.41 2.08 4.37 4.64 4.37h111.43c2.56 0 4.64-1.96 4.64-4.37v-4.37c0-4.81-4.16-8.73-9.28-8.73zm-65-4.36c0-2.41 2.08-4.37 4.64-4.37h18.57c2.56 0 4.64 1.96 4.64 4.37v4.36h-27.85z" fill="none" stroke="#803d47" stroke-linejoin="miter" stroke-width="6"/><path d="M315.158 874.34l164.734-197.098" fill="none" stroke="#000" stroke-width="13"/><path d="M556.187 593.263c23.553 22.143 23.55 58.05.005 80.191-23.553 22.147-61.739 22.15-85.285 0-23.553-22.143-23.557-58.044-.004-80.191s61.738-22.15 85.284 0" fill="#dae8fc" fill-rule="nonzero" stroke="#6c8ebf" stroke-width="11"/><path d="M51.996 1200.01l191.511-238.238" fill="none" stroke="#000" stroke-width="13"/><path d="M318.948 879.959c23.55 22.145 23.55 58.05 0 80.195s-61.734 22.145-85.285 0c-23.55-22.146-23.55-58.05 0-80.195s61.734-22.146 85.285 0" fill="#dae8fc" fill-rule="nonzero" stroke="#6c8ebf" stroke-width="11"/><path d="M553.255 590.124l166.063-195.726" fill="none" stroke="#000" stroke-width="13"/><path d="M801.442 309.109c23.553 22.143 23.55 58.05-.003 80.197-23.545 22.14-61.73 22.143-85.284 0-23.546-22.15-23.55-58.05.003-80.197 23.553-22.147 61.731-22.142 85.284 0m471.498 255.997c23.556 22.146 23.555 58.055.002 80.203-23.545 22.14-61.733 22.14-85.289-.006-23.541-22.146-23.547-58.049.005-80.196s61.733-22.14 85.282-.001" fill="#dae8fc" fill-rule="nonzero" stroke="#6c8ebf" stroke-width="11"/><text fill="#4d6588" font-family="'HelveticaNeue-Bold', 'Helvetica Neue'" font-size="90" font-weight="700" x="484.895" y="666.054">B</text><text fill="#4d6588" font-family="'HelveticaNeue-Bold', 'Helvetica Neue'" font-size="90" font-weight="700" x="248.511" y="949.901">A</text><text fill="#4d6588" font-family="'HelveticaNeue-Bold', 'Helvetica Neue'" font-size="90" font-weight="700" x="724.319" y="381.901">C</text><text fill="#4d6588" font-family="'HelveticaNeue-Bold', 'Helvetica Neue'" font-size="90" font-weight="700" x="1201.66" y="637.901">B</text></svg>