<svg clip-rule="evenodd" fill-rule="evenodd" viewBox="0 0 952 310" xmlns="http://www.w3.org/2000/svg"><clipPath id="a"><path d="M0 0h951.703v309.02H0z"/></clipPath><clipPath id="b"><path d="M0 0h19.154v13.461H0z"/></clipPath><g clip-path="url(#a)"><path d="M78 16h864v268H78zM58-4h20v20H58zm884 0h20v20h-20zM58 284h20v20H58zm884 0h20v20h-20zm-777.6 1.5h691.2v20H164.4zm-86.4 0h86.4v20H78zm777.6 0H942v20h-86.4zM56.5 42.8h20v214.4h-20zm0 214.4h20V284h-20zm0-241.2h20v26.8h-20z" fill="none"/><path d="M78 284h864" fill="none" stroke="#fff"/><path d="M92.4 279.09h28.8V284H92.4zm144-.9h28.8V284h-28.8zm144 .9h28.8V284h-28.8zm144-17.65h28.8V284h-28.8zm144-20.1h28.8V284h-28.8zm144-5.8h28.8V284h-28.8z" fill="#e34a33"/><path d="M121.2 280.023H150V284h-28.8zm144-5.403H294V284h-28.8zm144 2.01H438V284h-28.8zm144-18.98H582V284h-28.8zm144-23.45H726V284h-28.8zm144-50.428H870V284h-28.8z" fill="#ffbf15"/><path d="M150 279.165h28.8V284H150zm144-4.545h28.8V284H294zm144 .67h28.8V284H438zm144-28.14h28.8V284H582zm144-14.74h28.8V284H726zm144-60.32h28.8V284H870z" fill="#00bf7d"/><path d="M178.8 271.27h28.8V284h-28.8zm144-.67h28.8V284h-28.8zm144-.45h28.8V284h-28.8zm144-29.25h28.8V284h-28.8zm144-21.44h28.8V284h-28.8zm144-182.24h28.8V284h-28.8z" fill="#43a2ca"/><path d="M74.515 285.5H941M76.5 16v268" fill="none" stroke="#3d3d3d" stroke-width="4"/><path d="M186.236 2.916h605v34h-605z" fill="none"/><g fill="#333" font-family="'ArialMT', 'Arial', sans-serif"><text font-size="14" x="99.014" y="272.84">22</text><text font-size="14" x="243.014" y="271.94">26</text><text font-size="14" x="387.014" y="272.84">22</text><text font-size="14" x="527.121" y="255.19">101</text><text font-size="14" x="671.121" y="235.09">191</text><text font-size="14" x="815.121" y="229.29">217</text><text font-size="14" transform="translate(0 1)" x="127.814" y="273.51">18</text><text font-size="14" x="271.814" y="268.37">42</text><text font-size="14" x="415.814" y="270.38">33</text><text font-size="14" transform="translate(-2)" x="556.441" y="251.4">1<tspan x="563.188 570.974" y="251.4 251.4">18</tspan></text><text font-size="14" x="699.921" y="227.95">223</text><text font-size="14" transform="translate(0 1)" x="843.921" y="176.36">448</text><text font-size="15" transform="translate(0 4)" x="156.058" y="269.88">21</text><text font-size="15" x="300.058" y="267.87">42</text><text font-size="15" x="444.058" y="268.54">39</text><text font-size="15" transform="translate(-2)" x="583.886" y="240.4">165</text><text font-size="15" x="727.886" y="225.66">231</text><text font-size="15" transform="translate(0 -56.388)" x="871.886" y="221.86">504</text><text font-size="14" x="185.414" y="265.02">57</text><text font-size="14" x="329.414" y="264.35">60</text><text font-size="14" x="473.414" y="263.9">62</text><text font-size="14" x="613.521" y="234.65">193</text><text font-size="14" x="757.521" y="213.21">289</text><text font-size="12.746" x="899.495" y="31.261">1<tspan x="905.638 912.727" y="31.261 31.261">10</tspan>5</text><text font-size="16" x="103.777" y="306.2">U-Net (VGG)</text><text font-size="16" x="273.109" y="306.2">FCN8</text><text font-size="16" x="411.316" y="306.2">SegNet</text><text font-size="16" x="546.426" y="306.2">ResNet50</text><text font-size="16" x="699.32" y="306.2">VGG19</text><text font-size="16" x="833.984" y="306.2">MobileNet</text><text font-size="17" x="62.145" y="289.95">0</text><text font-size="17" x="43.236" y="178.28">500</text><text font-size="17" x="33.782" y="66.62">1000</text><text font-size="20" transform="rotate(-90)" x="-254.172" y="20.801">Max batch size feasible</text></g><path d="M179.856 13.816h12v12h-12z" fill="#e34a33"/><text fill="#333" font-family="'ArialMT', 'Arial', sans-serif" font-size="16" transform="translate(-20.38)" x="220.236" y="26.056">Checkpoint all</text><path d="M324.282 13.816h12v12h-12z" fill="#ffbf15"/><text fill="#333" font-family="'ArialMT', 'Arial', sans-serif" font-size="16" transform="translate(-22.954)" x="367.236" y="26.056">Chen et al.</text><g clip-path="url(#b)" transform="matrix(1.05988 0 0 1.06914 425.17 12.224)"><path d="M5.557 12.39L3.179 7.135c-.095-.217-.162-.217-.203-.217-.014 0-.081 0-.23.109L1.464 8c-.175.134-.175.175-.175.216 0 .067.04.149.134.149.082 0 .311-.19.46-.297a11.4 11.4 0 01.432-.325l2.662 5.85c.094.216.162.216.284.216.202 0 .243-.081.336-.27L11.73.84c.095-.19.095-.244.095-.27a.272.272 0 00-.27-.271c-.109 0-.203.068-.31.283z" fill-rule="nonzero"/><path d="M11.289.03h7.896v.54H11.29z"/><path d="M14.342 7.272c.027-.082.365-.757.865-1.19a1.96 1.96 0 011.338-.54c.54 0 .728.405.728.945 0 .771-.553 2.311-.823 3.04-.122.324-.19.5-.19.744 0 .608.419 1.094 1.068 1.094 1.256 0 1.729-1.986 1.729-2.067 0-.068-.055-.122-.135-.122-.122 0-.136.04-.203.27-.311 1.108-.824 1.648-1.35 1.648-.136 0-.352-.013-.352-.445 0-.338.148-.743.23-.932.27-.744.837-2.257.837-3.026 0-.811-.473-1.42-1.5-1.42-1.202 0-1.837.853-2.08 1.19-.04-.77-.595-1.19-1.189-1.19-.432 0-.729.258-.96.717-.242.486-.431 1.297-.431 1.351 0 .054.054.121.148.121.109 0 .122-.013.203-.324.216-.824.46-1.593 1-1.593.31 0 .419.216.419.62 0 .297-.136.825-.23 1.243l-.378 1.459a26.06 26.06 0 01-.27 1.109c-.095.35-.243.986-.243 1.053 0 .19.148.338.351.338a.52.52 0 00.459-.284c.027-.068.149-.54.216-.81l.297-1.216z" fill-rule="nonzero"/></g><path d="M460.886 13.816h12v12h-12z" fill="#00bf7d"/><text fill="#333" font-family="'ArialMT', 'Arial', sans-serif" font-size="16" transform="translate(-21.8)" x="502.686" y="26.056">Chen et al. greedy</text><text fill="#333" font-family="'ArialMT', 'Arial', sans-serif" font-size="16" transform="translate(7.08)" x="640.819" y="26.056">Checkmate (proposed)</text><path d="M627.9 13.816h12v12h-12z" fill="#43a2ca"/></g></svg>