<svg clip-rule="evenodd" fill-rule="evenodd" stroke-linecap="round" stroke-linejoin="round" stroke-miterlimit="2" viewBox="0 0 2686 460" xmlns="http://www.w3.org/2000/svg"><path d="M0 0h2685.383v459.01H0z" fill="none"/><text font-family="'Futura-Bold', 'Futura', sans-serif" font-size="14" font-weight="700" transform="matrix(26.60603 0 0 26.606 -311.875 61.09)" x="27.248" y="12.384">Chec<tspan x="62.15 71.922" y="12.384 12.384">km</tspan>at<tspan x="100.986" y="12.384">e</tspan></text><path d="M108.433 203.13l-11.28 46.66-5.78 62.737 13.24 38.425 17.66 26.471 55.13 1.836 65.32 3.322 31.96-3.795 33.69-9.465 9.73-8.405 7.35-19.82 3.11-16.208-.45-16.98.78-26.318-.81-28.618 2.72-33.23-27.96-21.234-24.41-8.233-42.79-2.056-58.47.922z" fill="#e5e5e5"/><g fill-rule="nonzero"><path d="M159.04 224.822c-21.237 0-38.455 17.217-38.455 38.454.055 21.216 17.24 38.401 38.455 38.455 21.238 0 38.455-17.217 38.455-38.455s-17.217-38.454-38.455-38.454zm0 57.14c-10.375 0-18.785-8.41-18.785-18.784s8.41-18.785 18.785-18.785 18.785 8.41 18.785 18.785-8.41 18.785-18.785 18.785zm109.562-57.14c-21.238 0-38.455 17.217-38.455 38.454.054 21.216 17.24 38.401 38.455 38.455 21.238 0 38.454-17.217 38.454-38.455s-17.217-38.454-38.454-38.454zm0 57.14c-10.375 0-18.785-8.41-18.785-18.784s8.41-18.785 18.785-18.785 18.784 8.41 18.784 18.785-8.41 18.785-18.784 18.785z"/><path d="M342.56 331.236c.345-6.63 1.653-82.399-2.458-105.923-4.178-23.902-24.686-43.273-61.272-43.273h-55.174v-20.555c-2.771-3.371-15.78-3.107-19.67 0v19.67h-55.273c-25.866 0-53.207 11.9-61.468 43.273-5.454 20.711-2.262 106.808-2.262 106.808 3.049 42.094 34.324 57.338 63.73 57.338H278.83c43.864 0 62.232-28.472 63.73-57.338zm-19.374-6.491c0 16.62-5.803 44.356-44.356 44.356H148.713c-16.62 0-44.355-5.803-44.355-44.356v-78.68c0-38.651 27.833-44.355 44.355-44.355H278.83c38.651 0 44.356 27.832 44.356 44.355z"/><path d="M268.602 327.302H159.04c-5.431 0-9.835 4.404-9.835 9.835s4.404 9.835 9.835 9.835h109.562c5.431 0 9.835-4.404 9.835-9.835s-4.404-9.835-9.835-9.835zm-128.505 47.164c-14.503 0-26.26 11.756-26.26 26.259s11.757 26.26 26.26 26.26 26.259-11.757 26.259-26.26-11.757-26.26-26.26-26.26zm0 32.848a6.59 6.59 0 110-13.18 6.59 6.59 0 010 13.18zm135.393-32.848c-14.503 0-26.26 11.756-26.26 26.259s11.757 26.26 26.26 26.26 26.26-11.757 26.26-26.26-11.757-26.26-26.26-26.26zm0 32.848a6.59 6.59 0 110-13.18 6.59 6.59 0 010 13.18z"/><path d="M267.08 97.057c0 29.053-23.77 52.823-52.823 52.823s-52.824-23.77-52.824-52.823 23.77-52.824 52.824-52.824c5.282 0 9.904.66 14.526 1.98l10.565-10.564c-7.924-2.641-16.507-4.622-25.091-4.622-36.317 0-66.03 29.713-66.03 66.03s29.713 66.03 66.03 66.03 66.03-29.714 66.03-66.03z" stroke="#000" stroke-width="6.2508116000000005"/></g><path d="M150.45 206.55l-35.7 35.7L229.5 357l255-255-35.7-35.7-219.3 219.3z" fill="none" stroke="#00c9a6" stroke-miterlimit="1" stroke-width="24.94" transform="matrix(.32875 0 0 .33944 146.255 1.23)"/><path d="M195.715 71.34L183.98 83.46l37.724 38.95 83.832-86.557L293.8 23.735l-72.096 74.44z" fill="#00c9a6" fill-rule="nonzero"/></svg>