<svg clip-rule="evenodd" fill-rule="evenodd" stroke-linecap="round" stroke-linejoin="round" stroke-miterlimit="2" viewBox="0 0 436 460" xmlns="http://www.w3.org/2000/svg"><path d="M.004 0H435.76v459.01H.004z" fill="none"/><path d="M108.439 203.13l-11.28 46.66-5.78 62.737 13.24 38.425 17.66 26.47 55.13 1.837 65.32 3.322 31.96-3.795 33.69-9.465 9.73-8.405 7.35-19.821 3.11-16.207-.45-16.98.78-26.319-.81-28.618 2.72-33.23-27.96-21.233-24.41-8.233-42.79-2.056-58.47.922z" fill="#e5e5e5"/><g fill-rule="nonzero"><path d="M159.045 224.821c-21.237 0-38.454 17.218-38.454 38.455.054 21.215 17.24 38.4 38.454 38.455 21.238 0 38.455-17.218 38.455-38.455s-17.217-38.455-38.455-38.455zm0 57.141c-10.374 0-18.784-8.41-18.784-18.784s8.41-18.785 18.784-18.785 18.785 8.41 18.785 18.785-8.41 18.784-18.785 18.784zm109.562-57.141c-21.237 0-38.455 17.218-38.455 38.455.055 21.215 17.24 38.4 38.455 38.455 21.239 0 38.455-17.218 38.455-38.455s-17.217-38.455-38.455-38.455zm0 57.141c-10.374 0-18.785-8.41-18.785-18.784s8.41-18.785 18.785-18.785 18.785 8.41 18.785 18.785-8.41 18.784-18.785 18.784z"/><path d="M342.566 331.236c.345-6.63 1.653-82.399-2.458-105.923-4.178-23.903-24.686-43.274-61.272-43.274H223.66v-20.555c-2.77-3.37-15.779-3.106-19.67 0v19.67h-55.27c-25.866 0-53.208 11.9-61.469 43.274-5.453 20.711-2.262 106.808-2.262 106.808 3.049 42.093 34.324 57.337 63.73 57.337h130.118c43.864 0 62.232-28.472 63.73-57.337zm-19.375-6.491c0 16.62-5.802 44.355-44.355 44.355H148.719c-16.621 0-44.356-5.802-44.356-44.355v-78.68c0-38.652 27.833-44.356 44.356-44.356h130.117c38.651 0 44.355 27.833 44.355 44.356z"/><path d="M268.607 327.302H159.045c-5.43 0-9.834 4.403-9.834 9.835s4.403 9.835 9.834 9.835h109.562c5.432 0 9.835-4.404 9.835-9.835s-4.403-9.835-9.835-9.835zm-128.505 47.163c-14.503 0-26.26 11.757-26.26 26.26s11.757 26.259 26.26 26.259 26.26-11.757 26.26-26.26-11.757-26.259-26.26-26.259zm0 32.849a6.59 6.59 0 110-13.18 6.59 6.59 0 010 13.18zm135.393-32.849c-14.502 0-26.259 11.757-26.259 26.26s11.757 26.259 26.26 26.259 26.259-11.757 26.259-26.26-11.757-26.259-26.26-26.259zm0 32.849a6.59 6.59 0 11.001-13.18 6.59 6.59 0 010 13.18z"/></g><path d="M267.085 97.057c0 29.053-23.77 52.823-52.823 52.823s-52.824-23.77-52.824-52.823 23.77-52.824 52.824-52.824c5.282 0 9.904.66 14.526 1.98l10.565-10.564c-7.924-2.641-16.507-4.622-25.091-4.622-36.317 0-66.03 29.713-66.03 66.03s29.713 66.03 66.03 66.03 66.03-29.714 66.03-66.03z" fill-rule="nonzero" stroke="#000" stroke-width="6.2508116000000005"/><path d="M150.45 206.55l-35.7 35.7L229.5 357l255-255-35.7-35.7-219.3 219.3z" fill="none" stroke="#00c9a6" stroke-miterlimit="1" stroke-width="24.94" transform="matrix(.32875 0 0 .33944 146.26 1.229)"/><path d="M195.72 71.34l-11.735 12.12 37.725 38.95 83.832-86.557-11.737-12.118-72.095 74.44z" fill="#00c9a6" fill-rule="nonzero"/></svg>