<svg clip-rule="evenodd" fill-rule="evenodd" stroke-miterlimit="2" viewBox="0 0 1014 832" xmlns="http://www.w3.org/2000/svg"><path d="M0 0h1013.71v831.62H0z" fill="none"/><path d="M38.01 27.08h9.56v-5.61c0-2.87 4.36-2.87 4.36 0v5.61h9.56v-5.61c0-2.87 4.36-2.87 4.36 0v5.89c3.13.82 5.56 3.37 6.22 6.54h6.71c2.87 0 2.87 4.36 0 4.36h-6.52v9.56h6.52c2.87 0 2.87 4.36 0 4.36h-6.52v9.56h6.52c2.87 0 2.87 4.36 0 4.36h-6.71a8.57 8.57 0 01-2.33 4.29 8.595 8.595 0 01-3.89 2.24v5.9c0 2.87-4.36 2.87-4.36 0v-5.62h-9.56v5.62c0 2.87-4.36 2.87-4.36 0v-5.62h-9.56v5.62c0 2.87-4.36 2.87-4.36 0v-5.9a8.606 8.606 0 01-6.22-6.53h-6.21c-2.87 0-2.87-4.36 0-4.36h6.02v-9.56h-6.02c-2.87 0-2.87-4.36 0-4.36h6.02v-9.56h-6.02c-2.87 0-2.87-4.36 0-4.36h6.21c.67-3.16 3.1-5.71 6.22-6.54v-5.89c0-2.87 4.36-2.87 4.36 0zm-2.24 4.36c-2.3.03-4.16 1.92-4.16 4.22v28.67c0 2.27 1.88 4.22 4.16 4.22h27.84c1.16 0 2.22-.42 3.04-1.24a4.22 4.22 0 001.24-2.98V35.66c0-2.29-1.87-4.19-4.16-4.22z" fill="#d90368" fill-rule="nonzero" stroke="#d90368" stroke-width="3.52" transform="matrix(9.46606 0 0 9.46605 -65.48 -4.166)"/><path d="M150.45 206.55l-35.7 35.7L229.5 357l255-255-35.7-35.7-219.3 219.3z" fill="none" stroke="#2fb24b" stroke-linejoin="bevel" stroke-miterlimit="1" stroke-width="29.27" transform="matrix(1.84137 0 0 1.85952 57.694 -54.769)"/><path d="M334.728 329.315L268.991 395.7 480.29 609.08l469.55-474.178-65.74-66.385L480.29 476.31z" fill="#2fb24b" fill-rule="nonzero"/></svg>